<?xml version="1.0" encoding="utf-8"?>
<!-- Generator: Adobe Illustrator 27.9.0, SVG Export Plug-In . SVG Version: 6.00 Build 0)  -->
<svg version="1.1" id="Layer_1" xmlns="http://www.w3.org/2000/svg" xmlns:xlink="http://www.w3.org/1999/xlink" x="0px" y="0px"
	 viewBox="0 0 595.3 595.3" style="enable-background:new 0 0 595.3 595.3;" xml:space="preserve">
<rect y="0" style="fill:#FFFFFF;" width="595.3" height="595.3"/>
<path style="fill:#FFFFFF;stroke:#007AC3;stroke-width:3;" d="M39.4,581.1c-14,0-25.2-11.2-25.2-25.1V39.4
	c0-13.9,11.2-25.2,25.2-25.2H556c13.9,0,25.2,11.3,25.2,25.2V556c0,13.9-11.3,25.1-25.2,25.1H39.4z"/>
<path style="fill:#007AC3;" d="M555,33.1H40.3c-3.5,0-7.4,3.9-7.4,7.4v514.7c0,3.5,3.8,7.4,7.4,7.4H555c3.5,0,7.4-3.8,7.4-7.4V40.5
	C562.4,37,558.4,33.1,555,33.1z"/>
<path style="fill:#FFFFFF;" d="M501.4,492.8c0,4.7-3.8,8.5-8.5,8.5H101.7c-4.7,0-8.5-3.8-8.5-8.5V101.6c0-4.7,3.8-8.5,8.5-8.5h391.2
	c4.7,0,8.5,3.8,8.5,8.5L501.4,492.8L501.4,492.8z"/>
<path d="M340.2,297.7c0,23.5-19,42.5-42.5,42.5s-42.5-19-42.5-42.5s19-42.5,42.5-42.5S340.2,274.2,340.2,297.7"/>
<path d="M452.8,170.1c0,0-154.6,0-155.2,0c-70.4,0-127.6,57.1-127.6,127.6c0,14.9,2.6,29.2,7.3,42.5H234
	c-8.2-12.2-12.9-26.8-12.9-42.5c0-42.3,34.3-76.5,76.5-76.5l0,0h155.2l29.1-25.5L452.8,170.1z"/>
<path d="M417.9,255.1h-56.6c8.1,12.2,12.9,26.8,12.9,42.5c0,42.3-34.3,76.5-76.5,76.5l0,0l0,0H142.5l-29.1,25.5l29.1,25.5h155.2l0,0
	c70.4,0,127.6-57.1,127.6-127.6C425.2,282.7,422.6,268.4,417.9,255.1z"/>
</svg>
